<?xml version="1.0" encoding="iso-8859-1"?>
<svg version="1.1" id="Capa_1" xmlns="http://www.w3.org/2000/svg" xmlns:xlink="http://www.w3.org/1999/xlink" x="0px" y="0px"
	 viewBox="0 0 58 58" style="enable-background:new 0 0 58 58;" xml:space="preserve" fill="#fff">
<g>
	<path d="M51,1.5c-3.519,0-6.432,2.613-6.92,6H13.92c-0.488-3.387-3.401-6-6.92-6c-3.859,0-7,3.14-7,7v41c0,3.86,3.141,7,7,7h44
		c3.859,0,7-3.14,7-7v-41C58,4.64,54.859,1.5,51,1.5z M2,8.5c0-2.757,2.243-5,5-5s5,2.243,5,5v36.105
		C10.729,43.307,8.957,42.5,7,42.5s-3.729,0.807-5,2.105V8.5z M51,54.5H23v-1c0-0.552-0.447-1-1-1s-1,0.448-1,1v1h-2v-4
		c0-0.552-0.447-1-1-1s-1,0.448-1,1v4H7c-2.757,0-5-2.243-5-5s2.243-5,5-5s5,2.243,5,5h2v-40h20v4c0,0.552,0.447,1,1,1s1-0.448,1-1
		v-4h2v2c0,0.552,0.447,1,1,1s1-0.448,1-1v-2h4v40h2c0-2.757,2.243-5,5-5s5,2.243,5,5S53.757,54.5,51,54.5z M56,44.605
		c-1.271-1.298-3.043-2.105-5-2.105s-3.729,0.807-5,2.105V8.5c0-2.757,2.243-5,5-5s5,2.243,5,5V44.605z"/>
	<path d="M22.332,28.661C22.111,27.961,22,27.234,22,26.5c0-0.552-0.447-1-1-1s-1,0.448-1,1c0,0.938,0.143,1.867,0.424,2.761
		c0.135,0.427,0.528,0.7,0.954,0.7c0.099,0,0.2-0.015,0.3-0.046C22.205,29.749,22.498,29.188,22.332,28.661z"/>
	<path d="M25.972,33.137c-0.87-0.521-1.624-1.168-2.243-1.921c-0.349-0.426-0.978-0.489-1.407-0.138
		c-0.427,0.351-0.488,0.981-0.138,1.408c0.764,0.931,1.692,1.727,2.759,2.366c0.161,0.097,0.339,0.143,0.514,0.143
		c0.34,0,0.671-0.173,0.858-0.486C26.599,34.035,26.445,33.42,25.972,33.137z"/>
	<path d="M33.761,34.924C32.867,34.643,31.938,34.5,31,34.5c-0.766,0-1.526-0.085-2.262-0.254c-0.54-0.128-1.074,0.212-1.198,0.751
		c-0.123,0.538,0.213,1.075,0.751,1.198C29.174,36.397,30.085,36.5,31,36.5c0.734,0,1.461,0.112,2.161,0.332
		c0.1,0.031,0.2,0.046,0.3,0.046c0.426,0,0.819-0.273,0.954-0.7C34.581,35.651,34.288,35.09,33.761,34.924z"/>
	<path d="M39.352,39.442c-0.639-1.065-1.435-1.993-2.366-2.759c-0.427-0.351-1.057-0.288-1.407,0.137
		c-0.351,0.427-0.289,1.057,0.138,1.408c0.753,0.62,1.399,1.375,1.921,2.243c0.188,0.313,0.519,0.485,0.858,0.485
		c0.175,0,0.353-0.046,0.514-0.143C39.482,40.53,39.636,39.916,39.352,39.442z"/>
	<path d="M39.497,42.04c-0.539,0.124-0.875,0.66-0.751,1.199C38.915,43.972,39,44.732,39,45.5c0,0.552,0.447,1,1,1s1-0.448,1-1
		c0-0.918-0.103-1.83-0.305-2.709C40.571,42.252,40.035,41.918,39.497,42.04z"/>
	<polygon points="23.293,25.207 24.707,23.793 22.414,21.5 24.707,19.207 23.293,17.793 21,20.086 18.707,17.793 17.293,19.207 
		19.586,21.5 17.293,23.793 18.707,25.207 21,22.914 	"/>
</g>
<g>
</g>
<g>
</g>
<g>
</g>
<g>
</g>
<g>
</g>
<g>
</g>
<g>
</g>
<g>
</g>
<g>
</g>
<g>
</g>
<g>
</g>
<g>
</g>
<g>
</g>
<g>
</g>
<g>
</g>
</svg>
