<svg xmlns="http://www.w3.org/2000/svg" viewBox="0 0 58 58" style="enable-background:new 0 0 58 58" xml:space="preserve" fill="#fff"><path d="M51 1.5c-3.519 0-6.432 2.613-6.92 6H13.92c-.488-3.387-3.401-6-6.92-6-3.859 0-7 3.14-7 7v41c0 3.86 3.141 7 7 7h44c3.859 0 7-3.14 7-7v-41c0-3.86-3.141-7-7-7zm-49 7c0-2.757 2.243-5 5-5s5 2.243 5 5v36.105C10.729 43.307 8.957 42.5 7 42.5s-3.729.807-5 2.105V8.5zm49 46H23v-1a1 1 0 1 0-2 0v1h-2v-4a1 1 0 1 0-2 0v4H7c-2.757 0-5-2.243-5-5s2.243-5 5-5 5 2.243 5 5h2v-40h20v4a1 1 0 1 0 2 0v-4h2v2a1 1 0 1 0 2 0v-2h4v40h2c0-2.757 2.243-5 5-5s5 2.243 5 5-2.243 5-5 5zm5-9.895c-1.271-1.298-3.043-2.105-5-2.105s-3.729.807-5 2.105V8.5c0-2.757 2.243-5 5-5s5 2.243 5 5v36.105z"/><path d="M22.332 28.661A7.168 7.168 0 0 1 22 26.5a1 1 0 1 0-2 0c0 .938.143 1.867.424 2.761a1 1 0 0 0 1.908-.6zM25.972 33.137a8.626 8.626 0 0 1-2.243-1.921 1 1 0 1 0-1.545 1.27 10.59 10.59 0 0 0 2.759 2.366.997.997 0 0 0 1.372-.343 1 1 0 0 0-.343-1.372zM33.761 34.924A9.198 9.198 0 0 0 31 34.5c-.766 0-1.526-.085-2.262-.254a1 1 0 0 0-.447 1.949c.883.202 1.794.305 2.709.305a7.2 7.2 0 0 1 2.161.332 1 1 0 0 0 .6-1.908zM39.352 39.442a10.655 10.655 0 0 0-2.366-2.759 1 1 0 0 0-1.269 1.545 8.695 8.695 0 0 1 1.921 2.243.998.998 0 1 0 1.714-1.029zM39.497 42.04a1 1 0 0 0-.751 1.199c.169.733.254 1.493.254 2.261a1 1 0 1 0 2 0c0-.918-.103-1.83-.305-2.709a1 1 0 0 0-1.198-.751zM23.293 25.207l1.414-1.414-2.293-2.293 2.293-2.293-1.414-1.414L21 20.086l-2.293-2.293-1.414 1.414 2.293 2.293-2.293 2.293 1.414 1.414L21 22.914z"/></svg>