<?xml version="1.0" encoding="UTF-8"?>
<svg version="1.1" viewBox="0 0 41.434 50.773" xmlns="http://www.w3.org/2000/svg">
<g transform="translate(-354.28 -506.97)">
<g transform="matrix(.074784 0 0 .074784 353.76 492.99)" stroke-width="26.744">
<g transform="translate(684.87 50.32)" fill="none" stroke="#fff" stroke-width="26.744">
<path d="m-515.34 245.63s-137.26 283.27-146.99 401.08 16.212 113.49 27.021 125.38c10.808 11.889 359.39 26.023 359.39 26.023"/>
<path d="m-250.5 802.17s80.228 5.4011 88.25-78.856c6.4491-67.73-58.165-65.893-78.222-65.893-20.057 0-77.219-1.6203-77.219-1.6203"/>
<path d="m-239.11 267.91-312.66-22.318s-50.301-5.5706-48.942-46.798c1.3592-41.227 60.433-48.177 64.963-48.63 4.5305-0.45306 318.2 13.866 318.2 13.866"/>
<path d="m-221.38 657.91s-24.821 0.86108-39.598 8.4494c-16.036 8.2351-31.517 23.493-26.35 51.32 9.9277 53.468 35.456 45.448 49.638 42.774 14.182-2.6734 25.528-20.623 24.11-26.352l-1.4182-5.7287-70.912-4.201"/>
<g transform="translate(75.724 -494.02)">
<path d="m-291.62 657.7c20.057 0 84.671-1.8369 78.222 65.893-2.7116 28.477-13.671 46.713-27.59 59.207-27.118 27.7-79.969 133.43-106.85 205.94-15.229 41.084-88.256 237.09-52.091 275.66 36.165 38.573 87.222 30.935 87.222 30.935"/>
<path d="m-272.54 658.19s-24.821 0.86107-39.598 8.4494c-16.036 8.2351-31.517 23.493-26.35 51.32 9.9277 53.468 27.835 44.068 49.638 42.774 11.885-0.70523 20.252-15.089 24.11-26.352 1.8917-5.5234-1.4182-17.458-1.4182-17.458l-70.912-4.201"/>
</g>
</g>
</g>
</g>
</svg>