<svg viewBox="0 0 41.434 50.773" xmlns="http://www.w3.org/2000/svg"><g fill="none" stroke="#fff" stroke-width="26.744"><path d="M12.158 8.152S1.893 29.336 1.166 38.147s1.212 8.487 2.02 9.376c.809.89 26.877 1.946 26.877 1.946M31.964 49.773s6 .404 6.6-5.898c.482-5.065-4.35-4.927-5.85-4.927s-5.775-.121-5.775-.121" stroke-width="1.9999163199999999"/><path d="M32.816 9.819 9.434 8.149s-3.762-.416-3.66-3.5c.101-3.082 4.52-3.602 4.858-3.636C10.97.979 34.428 2.05 34.428 2.05M34.142 38.984s-1.857.065-2.962.632c-1.199.616-2.357 1.757-1.97 3.838.742 3.999 2.651 3.399 3.712 3.199 1.06-.2 1.909-1.542 1.803-1.97l-.106-.43-5.303-.313" stroke-width="1.9999163199999999"/><path d="M34.552 2.024c1.5 0 6.332-.138 5.85 4.928-.203 2.13-1.023 3.493-2.064 4.427-2.028 2.072-5.98 9.979-7.99 15.401-1.14 3.073-6.6 17.73-3.896 20.615 2.705 2.885 6.523 2.314 6.523 2.314" stroke-width="1.9999163199999999"/><path d="M35.979 2.06s-1.857.065-2.962.632c-1.199.616-2.357 1.757-1.97 3.838.742 3.999 2.081 3.296 3.712 3.199.889-.053 1.514-1.128 1.803-1.97.141-.414-.106-1.306-.106-1.306l-5.303-.314" stroke-width="1.9999163199999999"/></g></svg>